<svg height="256" width="256" xmlns="http://www.w3.org/2000/svg" xmlns:xlink="http://www.w3.org/1999/xlink" version="1.1" x="0px" y="0px" viewBox="0 0 90 90" style="width: 256px; height: 256px;"><path fill="#000000" d="M54.148,73.492c-0.392,0-0.787-0.114-1.134-0.353c-0.914-0.627-1.146-1.877-0.519-2.79 c0.845-1.23,1.451-3.316,1.688-5.137c-0.229,0.07-0.447,0.139-0.636,0.197c-2.612,0.816-3.59,1.122-4.534,0.008 c-0.521-0.614-0.624-1.514-0.262-2.233c1.534-3.041,2.054-8.038,1.135-10.915c-0.338-1.056,0.245-2.185,1.301-2.521 c1.053-0.339,2.184,0.244,2.521,1.301c0.879,2.751,0.822,6.66-0.01,10.115c1.959-0.588,2.791-0.71,3.634-0.155 c0.502,0.33,0.854,0.907,0.918,1.506c0.287,2.728-0.567,7.368-2.447,10.106C55.416,73.188,54.787,73.492,54.148,73.492z"></path><path fill="#000000" d="M50.155,84.996H24.028c-8.471,0-12.223-4.757-12.909-9.209c-0.741-4.8,1.938-9.443,6.23-10.801 c1.06-0.332,2.185,0.251,2.519,1.308s-0.251,2.185-1.308,2.519c-2.423,0.767-3.917,3.502-3.476,6.363 c0.562,3.636,3.904,5.807,8.943,5.807h26.127c0.305,0,0.476-0.183,0.551-0.291c0.085-0.124,0.167-0.323,0.073-0.568 c-0.2-0.523-0.527-1.081-1.888-1.081h-3.091c-1.543,0-3.157-0.874-3.925-2.124c-0.599-0.976-0.655-2.101-0.154-3.087 c0.47-0.927,0.835-4.12-0.595-6.098c-0.953-1.318-2.562-1.782-4.92-1.427c-1.095,0.172-2.119-0.586-2.285-1.682 c-0.167-1.096,0.586-2.119,1.682-2.285c4.894-0.749,7.474,1.242,8.774,3.042c2.136,2.953,2.079,7.186,1.208,9.597 c0.078,0.03,0.156,0.05,0.215,0.05h3.091c2.731,0,4.733,1.301,5.636,3.661c0.543,1.42,0.351,3.019-0.516,4.277 C53.137,84.237,51.695,84.996,50.155,84.996z"></path><path fill="#000000" d="M65.007,84.996h-5.114c-1.108,0-2.007-0.898-2.007-2.007s0.898-2.007,2.007-2.007h5.114 c0.305,0,0.476-0.183,0.551-0.291c0.085-0.124,0.167-0.323,0.073-0.568c-0.2-0.523-0.527-1.081-1.887-1.081h-0.239 c-1.993-0.029-3.37-0.597-4.239-1.733c-1.513-1.979-0.793-4.781,0.117-8.329c1.144-4.455,2.709-10.556,0.574-17.234 c-0.338-1.056,0.244-2.186,1.3-2.522c1.058-0.341,2.185,0.244,2.522,1.3c2.487,7.78,0.685,14.806-0.509,19.454 c-0.468,1.823-1.108,4.317-0.81,4.904c0,0.01,0.258,0.137,1.073,0.148l0.21-0.001c2.731,0,4.732,1.301,5.635,3.661 c0.543,1.42,0.351,3.019-0.516,4.277C67.988,84.237,66.547,84.996,65.007,84.996z"></path><path fill="#000000" d="M63.258,18.979c-6.974-5.93-19.104-2.363-23.091-1.192c-2.954,0.868-5.638,1.004-7.598,1.103 c-2.036,0.104-3.265,0.166-4.13,1.049c-1.495,1.527-2.082,4.064-1.569,6.787c0.539,2.865,2.185,5.172,4.4,6.171l0.294,0.132 c2.938,1.323,9.82,4.422,10.668,7.88c0.29,1.179-1.767,3.122-4.146,5.373c-5.411,5.116-13.589,12.848-14.423,28.531 c-0.059,1.106,0.791,2.052,1.897,2.11c0.036,0.002,0.072,0.003,0.108,0.003c1.059,0,1.945-0.83,2.002-1.9 C28.42,60.943,35.6,54.154,40.843,49.197c3.427-3.24,6.133-5.799,5.288-9.246c-1.314-5.357-8.863-8.756-12.919-10.582l-0.291-0.131 c-1.007-0.454-1.814-1.701-2.107-3.256c-0.011-0.057-0.01-0.109-0.019-0.165c0.381,0.371,0.899,0.602,1.473,0.602 c1.167,0,2.112-0.946,2.112-2.112c0-0.57-0.228-1.084-0.594-1.464c1.982-0.117,4.625-0.357,7.512-1.206 c9.447-2.774,15.779-2.645,19.36,0.4c3.189,2.712,4.318,7.993,3.355,15.697c-0.312,2.491-1.892,4.812-3.383,4.966 c-1.312,0.123-3.457-1.663-5.338-7.147c-0.36-1.048-1.501-1.604-2.55-1.247c-1.048,0.359-1.606,1.501-1.247,2.55 c2.964,8.64,6.827,10.119,9.548,9.837c3.879-0.401,6.477-4.658,6.952-8.46C69.138,29.102,67.543,22.624,63.258,18.979z"></path><path fill="#000000" d="M67.709,18.178c-0.476,0-0.953-0.169-1.336-0.511c-0.826-0.738-0.897-2.007-0.159-2.833l7.104-7.95 c0.738-0.826,2.006-0.897,2.833-0.159c0.826,0.738,0.897,2.007,0.159,2.833l-7.104,7.95C68.81,17.951,68.261,18.178,67.709,18.178z"></path><path fill="#000000" d="M71.271,23.062c-0.879,0-1.686-0.582-1.933-1.47c-0.297-1.067,0.329-2.174,1.396-2.471l9.046-2.514 c1.07-0.295,2.175,0.329,2.471,1.396c0.297,1.067-0.329,2.174-1.396,2.471l-9.046,2.514C71.63,23.038,71.449,23.062,71.271,23.062z"></path><path fill="#000000" d="M62.886,14.709c-0.098,0-0.197-0.007-0.297-0.021c-1.096-0.162-1.854-1.183-1.691-2.279l1.362-9.21 c0.162-1.097,1.195-1.853,2.279-1.691c1.096,0.162,1.854,1.183,1.691,2.279l-1.362,9.21C64.721,13.992,63.863,14.709,62.886,14.709z "></path><circle fill="#000000" cx="47.596" cy="26.137" r="2.112"></circle></svg>